<svg viewBox="0 0 155 155" xmlns="http://www.w3.org/2000/svg" fill-rule="evenodd" clip-rule="evenodd" stroke-linejoin="round" stroke-miterlimit="1.41421">
  <path fill="none" d="M0 0h155v155H0z"/>
  <path fill="#185787" d="M0 0h155v155H0z"/>
  <path fill="#185787" d="M0 0h155v155H0z"/>
  <path d="M138.368 75.292c0 8.249-6.688 14.936-14.937 14.936-8.249 0-14.936-6.687-14.936-14.936 0-8.25 6.687-14.937 14.936-14.937 8.249 0 14.937 6.687 14.937 14.937" fill="#7b5735" fill-rule="nonzero"/>
  <path d="M133.005 75.292c0 5.288-4.285 9.574-9.574 9.574-5.288 0-9.575-4.286-9.575-9.574 0-5.289 4.287-9.575 9.575-9.575 5.289 0 9.574 4.286 9.574 9.575" fill="#f3dbbd" fill-rule="nonzero"/>
  <path d="M46.181 73.382c0 8.248-6.688 14.935-14.936 14.935-8.249 0-14.936-6.687-14.936-14.935 0-8.25 6.687-14.937 14.936-14.937 8.248 0 14.936 6.687 14.936 14.937" fill="#7b5735" fill-rule="nonzero"/>
  <path d="M40.82 73.382c0 5.288-4.288 9.574-9.575 9.574-5.289 0-9.574-4.286-9.574-9.574 0-5.289 4.285-9.575 9.574-9.575 5.287 0 9.575 4.286 9.575 9.575" fill="#f3dbbd" fill-rule="nonzero"/>
  <path d="M123.917 77.187c0 25.912-21.005 46.917-46.916 46.917-25.911 0-46.915-21.005-46.915-46.917 0-25.911 21.004-46.916 46.915-46.916 25.911 0 46.916 21.005 46.916 46.916" fill="#8a603c" fill-rule="nonzero"/>
  <path d="M116.706 73.685c.042-11.282-9.069-20.463-20.352-20.506-8.822-.034-16.361 5.532-19.248 13.356-2.829-7.845-10.323-13.468-19.147-13.501-11.283-.043-20.463 9.068-20.506 20.351-.043 11.282 9.068 20.463 20.351 20.507.311 0 .62-.008.928-.021-1.327 3.454-2.082 6.975-2.082 10.107 0 11.282 9.146 20.427 20.429 20.427 11.283 0 20.429-9.145 20.429-20.427 0-3.085-.641-6.55-1.798-9.956.163.005.325.014.489.014 11.283.043 20.463-9.068 20.507-20.351" fill="#f3dbbd" fill-rule="nonzero"/>
  <path d="M85.544 74.187c0 5.83 4.725 10.553 10.554 10.553 5.83 0 10.552-4.723 10.552-10.553 0-5.829-4.722-10.553-10.552-10.553-5.829 0-10.554 4.724-10.554 10.553" fill="#d1bea5" fill-rule="nonzero"/>
  <path d="M89.392 74.272c0 3.468 2.811 6.278 6.278 6.278 3.467 0 6.279-2.81 6.279-6.278 0-3.467-2.812-6.279-6.279-6.279s-6.278 2.812-6.278 6.279" fill="#3d342f" fill-rule="nonzero"/>
  <path d="M94.774 69.09c0 1.651 1.337 2.989 2.988 2.989 1.652 0 2.991-1.338 2.991-2.989 0-1.651-1.339-2.99-2.991-2.99-1.651 0-2.988 1.339-2.988 2.99" fill="#fff" fill-rule="nonzero"/>
  <path d="M68.817 74.187c0 5.83-4.723 10.553-10.552 10.553-5.83 0-10.554-4.723-10.554-10.553 0-5.829 4.724-10.553 10.554-10.553 5.829 0 10.552 4.724 10.552 10.553" fill="#d1bea5" fill-rule="nonzero"/>
  <path d="M64.969 74.272c0 3.468-2.811 6.278-6.278 6.278-3.467 0-6.279-2.81-6.279-6.278 0-3.467 2.812-6.279 6.279-6.279s6.278 2.812 6.278 6.279" fill="#3d342f" fill-rule="nonzero"/>
  <path d="M59.588 69.09c0 1.651-1.337 2.989-2.988 2.989-1.652 0-2.991-1.338-2.991-2.989 0-1.651 1.339-2.99 2.991-2.99 1.651 0 2.988 1.339 2.988 2.99" fill="#fff" fill-rule="nonzero"/>
  <path d="M81.611 108.4c0 2.229-1.808 4.037-4.038 4.037-2.23 0-4.037-1.808-4.037-4.037 0-2.23 1.807-4.038 4.037-4.038s4.038 1.808 4.038 4.038" fill="#3d342f" fill-rule="nonzero"/>
</svg>
