<svg viewBox="0 0 155 155" xmlns="http://www.w3.org/2000/svg" fill-rule="evenodd" clip-rule="evenodd" stroke-linejoin="round" stroke-miterlimit="1.41421">
  <path fill="none" d="M0 0h155v155H0z"/>
  <path fill="#d8d423" d="M0 0h155v155H0z"/>
  <path d="M63.047 48.134c0 11.049-8.958 20.007-20.007 20.007-11.051 0-20.007-8.958-20.007-20.007 0-11.048 8.956-20.007 20.007-20.007 11.049 0 20.007 8.959 20.007 20.007m68.595 0c0 11.049-8.959 20.007-20.008 20.007s-20.006-8.958-20.006-20.007c0-11.048 8.957-20.007 20.006-20.007s20.008 8.959 20.008 20.007" fill="#313439" fill-rule="nonzero"/>
  <path d="M125.881 81.522c5.46 23.914 0 45.027-48.313 45.027-48.314 0-50.319-18.732-45.411-45.027 4.69-25.128 18.727-44.233 45.411-44.233 26.683 0 42.619 19.296 48.313 44.233" fill="#f7f1e6" fill-rule="nonzero"/>
  <path d="M89.694 87.265c2.571 8.633 13.167 10.05 19.136 6.263 5.968-3.788 7.076-12.735 2.476-19.981-4.597-7.247-13.164-10.052-19.133-6.263-5.967 3.788-4.927 11.753-2.479 19.981m-1.988 12.406c0 3.289-3.838 7.384-8.574 7.384-4.737 0-8.574-4.095-8.574-7.384 0-3.287 3.837-5.955 8.574-5.955 4.736 0 8.574 2.668 8.574 5.955" fill="#3b3e43" fill-rule="nonzero"/>
  <path d="M70.193 117.116c-2.353 0-4.955-1.159-7.776-3.468-.376-.306-.432-.86-.124-1.236.308-.377.861-.432 1.237-.124 3.298 2.698 6.14 3.622 8.442 2.746 4.59-1.746 5.95-9.96 5.961-10.042.078-.48.527-.809 1.008-.73.481.077.807.527.731 1.005-.061.38-1.543 9.307-7.075 11.411-.768.292-1.57.438-2.404.438" fill="#3b3e43" fill-rule="nonzero"/>
  <path d="M86.519 117.888c-.726 0-1.423-.134-2.088-.4-5.26-2.105-6.244-11.859-6.284-12.274-.046-.483.309-.913.792-.958.482-.05.914.309.958.791.243 2.527 1.648 9.393 5.189 10.809 1.943.776 4.418-.122 7.359-2.673.367-.317.922-.277 1.238.089.319.366.279.922-.086 1.241-2.591 2.245-4.962 3.375-7.078 3.375" fill="#3b3e43" fill-rule="nonzero"/>
  <path d="M93.868 81.432c0 3.923 3.178 7.101 7.1 7.101 3.921 0 7.101-3.178 7.101-7.101 0-3.921-3.18-7.101-7.101-7.101-3.922 0-7.1 3.18-7.1 7.101" fill="#fff" fill-rule="nonzero"/>
  <path d="M97.374 81.492c0 1.984 1.609 3.594 3.594 3.594 1.984 0 3.593-1.61 3.593-3.594 0-1.985-1.609-3.594-3.593-3.594-1.985 0-3.594 1.609-3.594 3.594" fill="#3b3e43" fill-rule="nonzero"/>
  <path d="M100.159 78.668c0 1.043.844 1.888 1.887 1.888 1.042 0 1.886-.845 1.886-1.888 0-1.042-.844-1.887-1.886-1.887-1.043 0-1.887.845-1.887 1.887" fill="#fff" fill-rule="nonzero"/>
  <path d="M70.284 85.652c-2.572 8.634-13.166 10.05-19.134 6.262-5.968-3.787-7.078-12.733-2.479-19.979 4.6-7.248 13.168-10.051 19.134-6.263 5.968 3.789 4.928 11.753 2.479 19.98" fill="#3b3e43" fill-rule="nonzero"/>
  <path d="M66.429 79.635c0 3.922-3.179 7.101-7.1 7.101s-7.101-3.179-7.101-7.101c0-3.921 3.18-7.102 7.101-7.102s7.1 3.181 7.1 7.102" fill="#fff" fill-rule="nonzero"/>
  <path d="M62.923 79.695c0 1.985-1.609 3.594-3.594 3.594-1.984 0-3.593-1.609-3.593-3.594 0-1.985 1.609-3.596 3.593-3.596 1.985 0 3.594 1.611 3.594 3.596" fill="#3b3e43" fill-rule="nonzero"/>
  <path d="M60.138 76.871c0 1.043-.844 1.888-1.887 1.888-1.042 0-1.886-.845-1.886-1.888s.844-1.888 1.886-1.888c1.043 0 1.887.845 1.887 1.888m24.58 21.017c-.202.79-1.372 1.172-2.614.856-1.243-.316-2.089-1.21-1.888-2 .201-.79 1.37-1.172 2.614-.856 1.242.316 2.087 1.211 1.888 2" fill="#fff" fill-rule="nonzero"/>
</svg>
