<svg viewBox="0 0 155 155" xmlns="http://www.w3.org/2000/svg" fill-rule="evenodd" clip-rule="evenodd" stroke-linejoin="round" stroke-miterlimit="1.41421">
  <path fill="none" d="M0 0h155v155H0z"/>
  <path d="M155 0v155H0V0h155z" fill="#62a5a2"/>
  <path d="M91.679 42.734c-4.324 6.092-2.511 14.807 4.048 19.465 6.561 4.656 15.386 3.493 19.71-2.598 4.323-6.09 5.13-24.123 2.421-26.779-2.706-2.655-21.852 3.822-26.179 9.912" fill="#ea692b" fill-rule="nonzero"/>
  <path d="M94.941 47.055c-2.421 4.058-.842 9.459 3.528 12.063 4.369 2.607 9.874 1.433 12.298-2.625 2.417-4.057 5.715-17.917 2.607-19.495-3.111-1.575-16.012 5.996-18.433 10.057" fill="#f3dbbd" fill-rule="nonzero"/>
  <path d="M65.176 42.734c4.323 6.092 2.51 14.807-4.049 19.465-6.56 4.656-15.384 3.493-19.709-2.598-4.325-6.09-5.131-24.123-2.423-26.779 2.707-2.655 21.854 3.822 26.181 9.912" fill="#ea692b" fill-rule="nonzero"/>
  <path d="M61.912 47.055c2.421 4.058.843 9.459-3.528 12.063-4.369 2.607-9.873 1.433-12.296-2.625-2.418-4.057-5.718-17.917-2.608-19.495 3.111-1.575 16.013 5.996 18.432 10.057" fill="#f3dbbd" fill-rule="nonzero"/>
  <path d="M126.986 100.312c-.6-.436-1.379-.856-2.3-1.241.247.151.472.286.687.408.592.261 1.133.539 1.613.833" fill="#f6f3cf" fill-rule="nonzero"/>
  <path d="M126.986 100.312c-.48-.294-1.021-.572-1.613-.833.976.562 1.613.833 1.613.833M30.709 99.07c-.921.385-1.699.806-2.302 1.241.483-.294 1.022-.572 1.615-.833.218-.122.444-.257.687-.408" fill="#f6f3cf" fill-rule="nonzero"/>
  <path d="M28.407 100.312s.641-.271 1.614-.833c-.593.261-1.132.539-1.614.833" fill="#f6f3cf" fill-rule="nonzero"/>
  <path d="M77.662 47.61v.002c.012 0 .023-.002.036-.002h-.036z" fill="#e96332" fill-rule="nonzero"/>
  <path d="M77.736 47.61h-.037c.011 0 .024.002.037.002v-.002z" fill="#a84720" fill-rule="nonzero"/>
  <path d="M115.561 85.351c0-20.82-16.857-37.698-37.668-37.738v-.002c-.013 0-.025.002-.039.002-.01 0-.022-.002-.035-.002v.002h-.104v-.002c-.012 0-.023.002-.037.002-.013 0-.023-.002-.036-.002v.002c-20.81.04-37.669 16.918-37.669 37.738 0 .49-9.066 10.72-2.872 22.937 3.426 6.756 22.33 13.976 40.341 14.174 19.099.21 37.359-7.01 40.992-14.174 6.194-12.217-2.873-22.447-2.873-22.937" fill="#ea692b" fill-rule="nonzero"/>
  <path d="M87.207 79.361c0 3.194 2.594 5.786 5.788 5.786 3.195 0 5.788-2.592 5.788-5.786 0-3.196-2.593-5.789-5.788-5.789-3.194 0-5.788 2.593-5.788 5.789" fill="#3b3e43" fill-rule="nonzero"/>
  <path d="M91.693 74.817c0 1.678 1.361 3.037 3.038 3.037 1.678 0 3.04-1.359 3.04-3.037 0-1.68-1.362-3.039-3.04-3.039-1.677 0-3.038 1.359-3.038 3.039" fill="#fff" fill-rule="nonzero"/>
  <path d="M70.095 79.361c0 3.194-2.591 5.786-5.785 5.786-3.196 0-5.786-2.592-5.786-5.786 0-3.196 2.59-5.789 5.786-5.789 3.194 0 5.785 2.593 5.785 5.789" fill="#3b3e43" fill-rule="nonzero"/>
  <path d="M65.613 74.817c0 1.678-1.36 3.037-3.038 3.037-1.679 0-3.039-1.359-3.039-3.037 0-1.68 1.36-3.039 3.039-3.039 1.678 0 3.038 1.359 3.038 3.039" fill="#fff" fill-rule="nonzero"/>
  <clipPath id="a">
    <path d="M77.854 47.612c-.01 0-.021-.001-.035-.001v.001h-.103v-.001c-.013 0-.024.001-.037.001-.013 0-.024-.001-.036-.001v.001c-20.811.04-37.67 16.918-37.67 37.738 0 .491-9.066 10.72-2.872 22.938 3.426 6.756 22.33 13.976 40.341 14.174 19.1.209 37.359-7.011 40.992-14.174 6.195-12.218-2.873-22.447-2.873-22.938 0-20.82-16.857-37.698-37.668-37.738v-.001c-.013 0-.025.001-.039.001z" clip-rule="nonzero"/>
  </clipPath>
  <g clip-path="url(#a)">
    <path d="M105.572 111.394c0 8.791-12.595 15.917-28.131 15.917-15.534 0-28.13-7.126-28.13-15.917 0-8.79 12.596-15.918 28.13-15.918 15.536 0 28.131 7.128 28.131 15.918" fill="#f3dbbd" fill-rule="nonzero"/>
  </g>
  <path d="M85.621 95.535c0 2.932-3.424 6.583-7.646 6.583-4.22 0-7.643-3.651-7.643-6.583 0-2.932 3.423-5.307 7.643-5.307 4.222 0 7.646 2.375 7.646 5.307" fill="#3b3e43" fill-rule="nonzero"/>
  <path d="M70.008 111.088c-2.096 0-4.418-1.035-6.932-3.091-.337-.274-.386-.768-.111-1.102.275-.334.77-.385 1.104-.111 2.939 2.406 5.472 3.229 7.525 2.448 4.091-1.556 5.304-8.879 5.315-8.952.068-.429.469-.72.898-.652.427.07.719.472.651.897-.052.34-1.376 8.295-6.307 10.171-.686.262-1.4.392-2.143.392" fill="#3b3e43" fill-rule="nonzero"/>
  <path d="M84.562 111.775c-.646 0-1.268-.117-1.86-.354-4.689-1.877-5.567-10.575-5.603-10.943-.041-.432.274-.813.705-.854.43-.043.815.274.857.706.215 2.251 1.467 8.374 4.625 9.633 1.73.694 3.936-.107 6.558-2.379.329-.285.822-.249 1.107.078.282.327.247.821-.078 1.107-2.31 1.999-4.423 3.006-6.311 3.006" fill="#3b3e43" fill-rule="nonzero"/>
  <path d="M82.956 93.947c-.179.704-1.222 1.044-2.33.762-1.108-.28-1.86-1.079-1.684-1.783.178-.704 1.222-1.044 2.332-.763 1.107.282 1.862 1.08 1.682 1.784" fill="#fff" fill-rule="nonzero"/>
  <path d="M58.587 101.718c-.213 0-.427-.081-.591-.241-.112-.109-9.232-8.696-35.003-12.634-.462-.069-.778-.502-.708-.963.071-.461.493-.781.964-.707 26.427 4.036 35.555 12.727 35.93 13.095.334.326.338.862.012 1.195-.166.169-.385.255-.604.255m-1.523 3.396c-.143 0-.286-.035-.417-.11-.134-.075-11.129-6.077-37.061-3.382-.469.049-.879-.288-.927-.754-.049-.463.287-.879.753-.927 26.588-2.769 37.617 3.332 38.073 3.594.404.231.546.749.314 1.155-.156.272-.442.424-.735.424m-37.844 9.224c-.352 0-.681-.221-.8-.571-.152-.443.083-.924.526-1.075 25.288-8.661 37.405-5.187 37.907-5.037.447.135.7.608.564 1.054-.133.447-.604.697-1.051.566-.121-.035-12.179-3.441-36.873 5.017-.089.03-.183.046-.273.046m76.869-11.312c-.219 0-.439-.085-.604-.254-.328-.333-.323-.869.011-1.195.376-.367 9.502-9.059 35.929-13.095.47-.072.893.246.964.707.071.461-.246.894-.707.964-25.894 3.954-34.914 12.545-35.002 12.631-.164.162-.378.242-.591.242m1.525 3.396c-.295 0-.58-.154-.736-.427-.231-.406-.09-.921.314-1.152.456-.261 11.483-6.361 38.072-3.593.464.048.802.464.753.928-.048.463-.459.803-.928.753-25.963-2.7-36.951 3.32-37.057 3.381-.133.075-.276.11-.418.11m37.842 9.225c-.09 0-.183-.015-.273-.045-24.692-8.457-36.752-5.053-36.873-5.017-.445.13-.918-.122-1.051-.568-.134-.447.117-.918.564-1.052.503-.152 12.619-3.624 37.908 5.036.442.152.677.632.525 1.074-.12.351-.447.572-.8.572" fill="#3d342f" fill-rule="nonzero"/>
</svg>
