<svg viewBox="0 0 155 155" xmlns="http://www.w3.org/2000/svg" fill-rule="evenodd" clip-rule="evenodd" stroke-linejoin="round" stroke-miterlimit="1.41421">
  <path fill="none" d="M0 0h155v155H0z"/>
  <path fill="#f0592b" d="M0 0h155v155H0z"/>
  <path d="M63.577 49.654c4.195 4.489 3.678 11.792-1.158 16.311-4.833 4.519-12.157 4.542-16.354.052-4.194-4.49-4.92-21.563-4.92-21.563s18.238.711 22.432 5.2" fill="#8a603c" fill-rule="nonzero"/>
  <path d="M60.383 52.609c2.654 2.839 2.325 7.458-.732 10.315-3.059 2.857-7.688 2.873-10.341.035-2.655-2.84-3.114-13.638-3.114-13.638s11.534.448 14.187 3.288" fill="#c2986b" fill-rule="nonzero"/>
  <path d="M89.968 50.013c-4.196 4.49-3.677 11.793 1.159 16.311 4.835 4.519 12.155 4.543 16.352.05 4.196-4.487 4.923-21.563 4.923-21.563s-18.238.711-22.434 5.202" fill="#8a603c" fill-rule="nonzero"/>
  <path d="M93.163 52.968c-2.654 2.839-2.327 7.458.732 10.315 3.058 2.858 7.687 2.873 10.34.033 2.655-2.839 3.115-13.637 3.115-13.637s-11.534.449-14.187 3.289" fill="#c2986b" fill-rule="nonzero"/>
  <path d="M72.918 59.236c-.08 0-.16-.005-.241-.014-1.177-.131-2.028-1.191-1.897-2.37.003-.033.357-3.259.324-6.713-.051-5.341-.947-6.739-1.174-7.007-2.741-.004-10.659-.114-17.659-.211-5.4-.077-10.5-.148-11.746-.148-.885 0-1.727-.375-2.371-1.058-2.295-2.442-2.107-9.924-1.919-13.028.072-1.184 1.093-2.087 2.274-2.014 1.183.071 2.085 1.09 2.013 2.273-.239 3.981.043 8.168.611 9.535 1.845.014 6.222.076 11.199.145 7.091.099 15.127.211 17.719.211 1.178 0 2.237.489 3.064 1.412 3.162 3.533 2.28 13.966 1.933 17.076-.12 1.099-1.052 1.911-2.13 1.911" fill="#e0dcd3" fill-rule="nonzero"/>
  <path d="M49.83 42.953c-1.166 0-2.122-.934-2.146-2.104l-.179-8.948c-.024-1.185.92-2.166 2.104-2.189h.045c1.165 0 2.121.932 2.145 2.103l.178 8.948c.026 1.185-.918 2.166-2.103 2.189-.014.001-.029.001-.044.001m10.558-.179c-1.157 0-2.111-.919-2.146-2.084l-.178-6.083c-.035-1.186.897-2.175 2.083-2.21 1.197-.035 2.175.898 2.21 2.082l.177 6.085c.036 1.187-.897 2.176-2.082 2.21h-.064zm21.371 16.642c-1.08 0-2.01-.812-2.131-1.911-.347-3.113-1.228-13.544 1.933-17.076.827-.923 1.887-1.413 3.065-1.413 2.592 0 10.628-.113 17.72-.21 4.974-.071 9.351-.131 11.196-.146.561-1.371.849-5.625.611-9.534-.072-1.185.831-2.202 2.014-2.273 1.186-.066 2.201.829 2.274 2.012.187 3.106.377 10.588-1.919 13.029-.643.683-1.486 1.059-2.372 1.059-1.244 0-6.346.071-11.745.147-6.999.097-14.917.208-17.658.212-.228.269-1.127 1.671-1.174 7.043-.029 3.452.32 6.643.324 6.676.131 1.178-.718 2.239-1.899 2.37-.079.01-.159.015-.239.015" fill="#e0dcd3" fill-rule="nonzero"/>
  <path d="M104.846 43.132c-.014 0-.028 0-.043-.001-1.186-.023-2.13-1.003-2.104-2.188l.179-8.949c.024-1.184.999-2.135 2.19-2.103 1.184.023 2.128 1.004 2.103 2.189l-.179 8.948c-.024 1.17-.979 2.104-2.146 2.104m-10.557-.179c-.021 0-.043-.001-.064-.001-1.186-.035-2.119-1.024-2.083-2.211l.178-6.083c.035-1.185 1.009-2.122 2.209-2.083 1.186.035 2.119 1.024 2.084 2.21l-.179 6.084c-.035 1.164-.988 2.084-2.145 2.084" fill="#e0dcd3" fill-rule="nonzero"/>
  <path d="M103.449 90.911c1.278-21.698-10.448-38.115-27.226-38.405v-.001c-.006 0-.011.001-.016.001-.006 0-.012-.001-.018-.001v.001c-16.776.29-28.502 16.707-27.225 38.405.515 8.729-14.966 37.097 26.803 37.097.147 0 .292-.002.44-.002.146 0 .292.002.438.002 41.77 0 26.289-28.368 26.804-37.097" fill="#8a603c" fill-rule="nonzero"/>
  <path d="M100.292 111.252c0 7.246-10.657 13.119-23.804 13.119-13.144 0-23.801-5.873-23.801-13.119 0-7.247 10.657-13.12 23.801-13.12 13.147 0 23.804 5.873 23.804 13.12M68.995 83.218c0 2.37-1.923 4.294-4.295 4.294-2.371 0-4.294-1.924-4.294-4.294 0-2.373 1.923-4.296 4.294-4.296 2.372 0 4.295 1.923 4.295 4.296" fill="#3b3e43" fill-rule="nonzero"/>
  <path d="M64.999 79.757c0 1.515-1.229 2.743-2.744 2.743-1.516 0-2.744-1.228-2.744-2.743 0-1.516 1.228-2.744 2.744-2.744 1.515 0 2.744 1.228 2.744 2.744" fill="#fff" fill-rule="nonzero"/>
  <path d="M83.191 83.216c0 2.372 1.923 4.296 4.295 4.296 2.371 0 4.294-1.924 4.294-4.296 0-2.371-1.923-4.294-4.294-4.294-2.372 0-4.295 1.923-4.295 4.294" fill="#3b3e43" fill-rule="nonzero"/>
  <path d="M87.189 79.757c0 1.515 1.227 2.743 2.741 2.743 1.517 0 2.745-1.228 2.745-2.743 0-1.516-1.228-2.744-2.745-2.744-1.514 0-2.741 1.228-2.741 2.744" fill="#fff" fill-rule="nonzero"/>
</svg>
