<svg viewBox="0 0 155 155" xmlns="http://www.w3.org/2000/svg" fill-rule="evenodd" clip-rule="evenodd" stroke-linejoin="round" stroke-miterlimit="1.41421">
  <path fill="none" d="M0 0h155v155H0z"/>
  <path fill="#62a5a2" d="M0 0h155v155H0z"/>
  <path d="M91.237 65.458c7.164-29.051 30.789-39.22 30.789-39.22s16.889 44.088-15.394 54.602L91.237 65.458z" fill="#d45f26" fill-rule="nonzero"/>
  <path d="M94.685 68.131c9.227-27.595 24.007-32.407 24.007-32.407s12.772 26.349-15.287 42.423l-8.72-10.016z" fill="#f3dbbd" fill-rule="nonzero"/>
  <path d="M63.44 65.458c-7.166-29.051-30.791-39.22-30.791-39.22S15.762 70.326 48.044 80.84L63.44 65.458z" fill="#d45f26" fill-rule="nonzero"/>
  <path d="M59.994 68.131c-9.23-27.595-24.009-32.407-24.009-32.407S23.213 62.073 51.272 78.147l8.722-10.016z" fill="#f3dbbd" fill-rule="nonzero"/>
  <path d="M77.321 57.94v.001c.012 0 .024-.001.035-.001h-.035z" fill="#e96332" fill-rule="nonzero"/>
  <path d="M77.392 57.94h-.035c.01 0 .022.001.035.001v-.001z" fill="#a84720" fill-rule="nonzero"/>
  <path d="M113.015 93.482c0-19.606-15.876-35.504-35.476-35.539v-.003c-.012 0-.023.001-.034.001-.011 0-.022-.001-.034-.001v.003h-.099v-.003c-.013 0-.023.001-.033.001-.012 0-.024-.001-.035-.001v.003c-19.599.035-35.476 15.933-35.476 35.539 0 .464-8.541 10.097-2.706 21.604 3.227 6.362 21.031 13.161 37.995 13.347 17.985.198 35.182-6.601 38.604-13.347 5.834-11.507-2.706-21.14-2.706-21.604" fill="#ea692b" fill-rule="nonzero"/>
  <path d="M86.312 87.842c0 3.009 2.442 5.449 5.452 5.449 3.007 0 5.45-2.44 5.45-5.449 0-3.01-2.443-5.451-5.45-5.451-3.01 0-5.452 2.441-5.452 5.451" fill="#3b3e43" fill-rule="nonzero"/>
  <path d="M90.535 83.561c0 1.581 1.284 2.86 2.864 2.86 1.58 0 2.861-1.279 2.861-2.86 0-1.582-1.281-2.861-2.861-2.861-1.58 0-2.864 1.279-2.864 2.861" fill="#fff" fill-rule="nonzero"/>
  <path d="M70.195 87.842c0 3.009-2.438 5.449-5.448 5.449-3.009 0-5.449-2.44-5.449-5.449 0-3.01 2.44-5.451 5.449-5.451 3.01 0 5.448 2.441 5.448 5.451" fill="#3b3e43" fill-rule="nonzero"/>
  <path d="M65.975 83.561c0 1.581-1.282 2.86-2.862 2.86-1.582 0-2.861-1.279-2.861-2.86 0-1.582 1.279-2.861 2.861-2.861 1.58 0 2.862 1.279 2.862 2.861" fill="#fff" fill-rule="nonzero"/>
  <path d="M86.641 111.842c0 3.353-3.913 7.526-8.738 7.526-4.828 0-8.739-4.173-8.739-7.526 0-3.351 3.911-6.068 8.739-6.068 4.825 0 8.738 2.717 8.738 6.068" fill="#3b3e43" fill-rule="nonzero"/>
  <path d="M83.594 110.027c-.203.805-1.396 1.193-2.663.872-1.266-.321-2.129-1.234-1.926-2.04.205-.805 1.4-1.193 2.666-.872 1.266.323 2.128 1.234 1.923 2.04" fill="#fff" fill-rule="nonzero"/>
  <clipPath id="a">
    <path d="M77.505 57.941h-.034v.002h-.099v-.002h-.069v.002c-19.599.035-35.476 15.933-35.476 35.539 0 .464-8.54 10.097-2.705 21.604 3.226 6.362 21.03 13.161 37.994 13.347 17.986.199 35.182-6.601 38.604-13.347 5.834-11.507-2.706-21.14-2.706-21.604 0-19.606-15.876-35.504-35.476-35.539v-.002h-.033z" clip-rule="nonzero"/>
  </clipPath>
  <g clip-path="url(#a)" fill="#f3dbbd" fill-rule="nonzero">
    <path d="M70.409 131.754c-2.851 3.657-13.92-.194-24.726-8.609-10.805-8.413-17.256-18.203-14.407-21.863 2.849-3.659 13.922.197 24.725 8.609 10.808 8.415 17.258 18.201 14.408 21.863m14.208-1.469c2.834 3.458 14.146-.363 25.263-8.536 11.117-8.17 17.831-17.598 14.997-21.058-2.835-3.457-14.148.365-25.264 8.535-11.116 8.173-17.83 17.599-14.996 21.059"/>
  </g>
</svg>
